<?xml version="1.0" standalone="no"?>
<!DOCTYPE svg PUBLIC "-//W3C//DTD SVG 20010904//EN"
 "http://www.w3.org/TR/2001/REC-SVG-20010904/DTD/svg10.dtd">
<svg version="1.0" xmlns="http://www.w3.org/2000/svg"
 width="200.000000pt" height="200.000000pt" viewBox="0 0 200.000000 200.000000"
 preserveAspectRatio="xMidYMid meet">

<g transform="translate(0.000000,200.000000) scale(0.100000,-0.100000)"
fill="#000000" stroke="none">
<path d="M940 1031 c0 -61 4 -101 10 -101 6 0 10 33 11 78 0 81 8 79 29 -5 6
-24 15 -43 20 -43 4 0 17 28 28 63 l20 62 1 -77 c1 -45 5 -78 11 -78 6 0 10
40 10 101 0 89 -2 100 -17 97 -12 -2 -22 -22 -31 -61 -8 -31 -17 -57 -21 -57
-4 0 -13 26 -21 57 -10 40 -20 59 -32 61 -16 3 -18 -7 -18 -97z"/>
<path d="M1130 1070 c0 -49 4 -62 20 -72 12 -8 20 -24 20 -40 0 -16 5 -28 10
-28 6 0 10 10 10 21 0 12 11 32 25 45 21 19 25 32 25 79 0 72 -18 71 -22 -1
-3 -60 -20 -83 -52 -71 -12 5 -16 20 -16 67 0 33 -4 60 -10 60 -6 0 -10 -27
-10 -60z"/>
<path d="M1340 1120 c0 -5 9 -10 20 -10 19 0 20 -7 20 -90 0 -53 4 -90 10 -90
6 0 10 37 10 90 0 83 1 90 20 90 11 0 20 5 20 10 0 6 -22 10 -50 10 -27 0 -50
-4 -50 -10z"/>
<path d="M1492 1118 c-7 -7 -12 -44 -12 -95 0 -79 1 -84 25 -95 19 -8 31 -8
50 0 24 11 25 16 25 95 0 51 -5 88 -12 95 -15 15 -61 15 -76 0z m56 -7 c9 -5
12 -30 10 -87 -3 -77 -4 -79 -28 -79 -24 0 -25 2 -28 79 -3 74 4 96 28 96 3 0
11 -4 18 -9z"/>
<path d="M1640 1030 l0 -100 38 0 c54 0 62 13 62 102 0 86 -9 98 -69 98 l-31
0 0 -100z m78 1 c3 -77 -3 -91 -40 -91 -16 0 -18 11 -18 86 l0 85 28 -3 c26
-3 27 -5 30 -77z"/>
<path d="M1807 1123 c-4 -3 -7 -46 -7 -94 0 -77 2 -90 19 -99 27 -14 47 -13
65 6 20 19 23 163 4 182 -13 13 -70 17 -81 5z m61 -12 c9 -5 12 -30 10 -87 -3
-75 -4 -79 -27 -82 -32 -5 -41 12 -41 85 0 75 22 107 58 84z"/>
</g>
</svg>
