<?xml version="1.0" standalone="no"?>
<!DOCTYPE svg PUBLIC "-//W3C//DTD SVG 20010904//EN"
 "http://www.w3.org/TR/2001/REC-SVG-20010904/DTD/svg10.dtd">
<svg version="1.0" xmlns="http://www.w3.org/2000/svg"
 width="100.000000pt" height="100.000000pt" viewBox="0 0 100.000000 100.000000"
 preserveAspectRatio="xMidYMid meet">

<g transform="translate(0.000000,100.000000) scale(0.100000,-0.100000)"
fill="#000000" stroke="none">
<path d="M570 590 c-11 -7 -15 -29 -15 -90 0 -85 7 -100 51 -100 35 0 44 20
44 102 0 66 -3 79 -19 88 -24 12 -41 13 -61 0z m60 -91 l0 -80 -27 3 c-27 3
-28 5 -31 67 -4 79 1 91 33 91 25 0 25 -1 25 -81z"/>
<path d="M866 584 c-12 -11 -16 -35 -16 -84 0 -90 26 -119 81 -90 16 9 19 22
19 90 0 68 -3 81 -19 90 -27 14 -47 13 -65 -6z m62 -87 l3 -78 -28 3 c-27 3
-28 5 -31 67 -4 78 1 93 30 89 21 -3 23 -9 26 -81z"/>
<path d="M50 500 c0 -108 18 -122 22 -17 l3 72 15 -60 c9 -33 20 -60 25 -60 5
0 16 27 25 60 l15 60 3 -72 c4 -105 22 -90 22 18 0 79 -2 90 -17 87 -11 -2
-21 -21 -29 -51 -7 -27 -15 -51 -17 -54 -3 -2 -12 21 -21 51 -11 35 -22 56
-31 56 -12 0 -15 -17 -15 -90z"/>
<path d="M230 535 c0 -44 4 -57 20 -67 11 -7 20 -23 20 -35 0 -13 5 -23 10
-23 6 0 10 10 10 21 0 12 8 27 17 34 12 9 18 29 20 69 1 31 -3 56 -8 56 -5 0
-9 -22 -9 -49 0 -52 -16 -76 -44 -65 -12 5 -16 19 -16 60 0 30 -4 54 -10 54
-5 0 -10 -25 -10 -55z"/>
<path d="M438 583 c21 -4 22 -9 22 -89 0 -49 4 -84 10 -84 6 0 10 35 10 84 0
80 1 85 23 89 12 2 -3 4 -33 4 -30 0 -45 -2 -32 -4z"/>
<path d="M710 500 l0 -90 39 0 c46 0 51 8 51 94 0 71 -10 86 -57 86 l-33 0 0
-90z m65 0 c0 -70 -1 -75 -22 -78 -22 -3 -23 -1 -23 78 0 79 1 81 23 78 21 -3
22 -8 22 -78z"/>
</g>
</svg>
